<?xml version="1.0" standalone="no"?>
<!DOCTYPE svg PUBLIC "-//W3C//DTD SVG 20010904//EN"
 "http://www.w3.org/TR/2001/REC-SVG-20010904/DTD/svg10.dtd">
<svg version="1.0" xmlns="http://www.w3.org/2000/svg"
 width="370.000000pt" height="80.000000pt" viewBox="0 0 370.000000 80.000000"
 preserveAspectRatio="xMidYMid meet">
<metadata>
Created by potrace 1.16, written by Peter Selinger 2001-2019
</metadata>
<g transform="translate(0.000000,80.000000) scale(0.100000,-0.100000)"
fill="#ffffff" stroke="none">
<path d="M91 501 c-11 -7 -16 -40 -18 -138 -2 -70 1 -134 6 -142 15 -23 31 -2
31 42 l0 42 51 0 c46 0 54 4 85 37 52 57 45 121 -16 153 -32 17 -117 20 -139
6z m130 -52 c22 -22 19 -50 -9 -82 -15 -17 -90 -43 -99 -33 -3 3 -2 35 2 71
l7 65 39 0 c26 0 46 -7 60 -21z"/>
<path d="M1374 495 c-9 -21 4 -35 32 -35 20 0 24 -4 20 -17 -3 -10 -12 -61
-21 -113 -14 -89 -14 -96 3 -108 11 -8 31 -11 57 -6 48 7 60 17 51 40 -5 12
-14 15 -38 10 l-31 -6 7 67 c13 133 16 143 42 143 31 0 32 26 2 34 -45 12
-118 7 -124 -9z"/>
<path d="M2021 379 c-17 -71 -29 -134 -26 -140 13 -19 35 -9 35 17 l0 26 45
-36 c32 -27 51 -36 65 -31 28 9 25 19 -15 46 -19 13 -35 27 -35 30 0 4 11 14
25 23 14 9 25 25 25 35 0 24 -31 51 -58 51 -26 0 -26 1 -7 47 20 47 19 63 -4
63 -17 0 -24 -19 -50 -131z m72 -16 c9 -9 -22 -43 -40 -43 -16 0 -16 5 -3 31
11 19 31 25 43 12z"/>
<path d="M2591 497 c-18 -9 -26 -22 -28 -47 -2 -19 -8 -61 -14 -93 -20 -110
18 -162 95 -133 71 27 95 92 55 148 -21 29 -21 31 -5 60 16 27 16 31 2 53 -19
28 -64 33 -105 12z m69 -27 c0 -6 -7 -24 -15 -41 -15 -29 -15 -31 10 -60 30
-37 31 -49 5 -82 -39 -50 -99 -43 -80 9 5 13 12 54 16 91 4 38 11 74 17 81 12
15 47 16 47 2z"/>
<path d="M463 388 c-33 -24 -76 -117 -66 -143 8 -22 35 -26 60 -9 23 15 26 14
44 -5 11 -12 29 -21 40 -21 23 0 59 54 59 89 0 25 0 25 -33 -7 -18 -18 -37
-32 -41 -32 -5 0 -6 22 -2 49 6 47 -5 101 -21 101 -5 0 -23 -10 -40 -22z m27
-36 c0 -18 -59 -96 -67 -89 -7 8 27 81 44 95 22 16 23 15 23 -6z"/>
<path d="M780 399 c0 -5 5 -7 10 -4 6 3 10 8 10 11 0 2 -4 4 -10 4 -5 0 -10
-5 -10 -11z"/>
<path d="M1079 385 c-31 -23 -41 -41 -63 -111 -4 -14 -1 -28 9 -38 21 -21 31
-20 54 3 19 19 20 19 36 -5 33 -50 93 -17 101 57 l4 31 -35 -31 c-20 -17 -38
-31 -42 -31 -3 0 -3 23 0 50 6 50 -4 100 -21 100 -4 0 -24 -11 -43 -25z m31
-33 c0 -21 -69 -104 -70 -84 0 24 28 80 47 91 24 14 23 14 23 -7z"/>
<path d="M1675 378 c-18 -45 -27 -120 -16 -137 16 -24 38 -4 45 41 7 40 38 88
59 88 6 0 7 -25 3 -63 -6 -55 -5 -65 13 -81 23 -21 45 -16 61 14 10 18 9 22
-7 26 -15 4 -18 14 -15 64 4 69 -12 86 -67 70 -18 -5 -33 -5 -36 1 -11 17 -26
9 -40 -23z"/>
<path d="M2985 403 c-11 -2 -29 -8 -40 -13 -11 -4 -28 -11 -37 -14 -24 -7 -58
-65 -58 -98 0 -40 33 -70 68 -62 38 9 81 51 104 102 27 61 13 94 -37 85z m5
-61 c0 -52 -83 -108 -105 -72 -11 18 30 84 56 91 43 12 49 10 49 -19z"/>
<path d="M3201 397 c-28 -14 -48 -43 -38 -53 4 -4 15 0 25 9 48 44 56 -1 12
-66 -16 -25 -30 -50 -30 -56 0 -20 22 -11 50 21 26 30 28 30 34 10 15 -45 80
-35 92 14 8 33 -1 41 -24 21 -23 -21 -38 -21 -46 -1 -7 18 -2 29 27 62 14 15
17 26 11 32 -13 13 -44 3 -44 -13 0 -6 -7 -1 -16 11 -18 25 -21 26 -53 9z"/>
<path d="M784 332 c-6 -4 -14 -30 -18 -58 -5 -43 -4 -53 10 -58 21 -8 25 -4
33 34 6 30 29 50 75 65 15 4 16 9 8 17 -8 8 -21 9 -46 1 -19 -6 -38 -7 -43 -2
-4 4 -13 5 -19 1z"/>
<path d="M2350 150 c0 -5 14 -10 30 -10 17 0 30 5 30 10 0 6 -13 10 -30 10
-16 0 -30 -4 -30 -10z"/>
</g>
</svg>
